<svg width="22" height="22" viewBox="0 0 22 22" fill="none" xmlns="http://www.w3.org/2000/svg">
<g clip-path="url(#clip0_7_17)">
<path d="M21.8997 10.7135L20.0663 8.42188C19.979 8.31311 19.8475 8.25 19.7083 8.25H12.8333V7.33334C12.8333 7.18295 12.7594 7.0424 12.6359 6.95646C12.5132 6.87097 12.3548 6.85038 12.2142 6.9041L11.5505 7.15296C10.3397 5.53715 8.44686 4.58334 6.41659 4.58334C2.87838 4.58334 -7.62939e-05 7.46179 -7.62939e-05 11C-7.62939e-05 14.5382 2.87838 17.4167 6.41659 17.4167C8.44686 17.4167 10.3397 16.4629 11.5505 14.847L12.2142 15.0959C12.3548 15.1496 12.5132 15.1281 12.6359 15.0435C12.7594 14.9576 12.8333 14.8171 12.8333 14.6667V13.75H13.2916C13.4133 13.75 13.5297 13.7017 13.6156 13.6157L14.2083 13.0231L14.8009 13.6157C14.9799 13.7948 15.2699 13.7948 15.449 13.6157L16.0416 13.0231L16.6342 13.6157C16.8132 13.7948 17.1033 13.7948 17.2823 13.6157L17.8749 13.0231L18.4675 13.6157C18.5535 13.7017 18.6698 13.75 18.7916 13.75H19.7083C19.8475 13.75 19.979 13.6869 20.0663 13.5781L21.8997 11.2865C22.0335 11.1191 22.0335 10.8809 21.8997 10.7135ZM3.66659 9.16667C4.6777 9.16667 5.49992 9.98889 5.49992 11C5.49992 12.0111 4.6777 12.8333 3.66659 12.8333C2.65548 12.8333 1.83326 12.0111 1.83326 11C1.83326 9.98889 2.65548 9.16667 3.66659 9.16667Z" fill="white"/>
</g>
<defs>
<clipPath id="clip0_7_17">
<rect width="22" height="22" fill="white"/>
</clipPath>
</defs>
</svg>
