<svg width="60" height="60" viewBox="0 0 60 60" fill="none" xmlns="http://www.w3.org/2000/svg">
<path d="M30 3.75C17.625 3.75 7.5 13.6875 7.5 26.0625V32.625C7.5 32.8125 7.5 32.8125 7.5 33C7.5 33.1875 7.5 33.5625 7.5 33.75C7.5 39 11.625 43.125 16.875 43.125C18 43.125 18.75 42.375 18.75 41.25V26.25C18.75 25.125 18 24.375 16.875 24.375C14.8125 24.375 12.75 25.125 11.25 26.25V25.875C11.25 15.75 19.6875 7.5 30 7.5C40.3125 7.5 48.75 15.75 48.75 26.0625V26.25C47.25 25.125 45.1875 24.375 43.125 24.375C42 24.375 41.25 25.125 41.25 26.25V41.25C41.25 42.375 42 43.125 43.125 43.125C44.4375 43.125 45.75 42.75 46.875 42.375C45 46.3125 41.625 49.3125 37.5 51C37.5 50.8125 37.5 50.8125 37.5 50.625C37.5 49.5 36.75 48.75 35.625 48.75H30C28.875 48.75 28.125 49.5 28.125 50.625V54.375C28.125 55.5 28.875 56.25 30 56.25C42.375 56.25 52.5 46.5 52.5 34.5V32.625V28.125V26.0625C52.5 13.6875 42.375 3.75 30 3.75Z" fill="#EB4646"/>
</svg>
